# xmcd
#
# Track frame offsets:
#	150
#	24397
#	51802
#
# Disc length: 1013 seconds
#
# Revision: 2
# Processed by: cddbd v1.5.1PL0 Copyright (c) Steve Scherf et al.
# Submitted via: MusicWizard 7.0.2
#
DISCID=1b03f303
DTITLE=S.O.S. Band - I'm Still Missing Your Love (3")
DYEAR=1989
DGENRE=Dance - Disco
TTITLE0=I'm Still Missing Your Love (12'' Mix)
TTITLE1=I'm Still Missing Your Love (Dub Version)
TTITLE2=I'm Still Missing Your Love (Tv Tracks)
EXTD=
EXTT0=12" mix
EXTT1=Dub Version
EXTT2=TV Tracks
PLAYORDER=
